<svg width="673" height="297" viewBox="0 0 673 297" fill="none" xmlns="http://www.w3.org/2000/svg">
<g clip-path="url(#clip0_11_5328)">
<path d="M116.071 115.522C114.595 102.87 113.036 89.5116 113.036 74H126.964C126.964 89.3374 125.413 102.679 123.938 115.345C122.737 125.667 121.588 135.541 121.375 145.681C128.368 138.386 134.486 130.651 140.895 122.549C148.797 112.559 157.141 102.01 168.109 91.0424L177.958 100.891C167.112 111.737 156.58 120.073 146.581 127.987L146.572 127.994C138.428 134.442 130.637 140.609 123.319 147.625C133.421 147.412 143.217 146.269 153.477 145.072C166.129 143.595 179.488 142.036 195 142.036V155.964C179.663 155.964 166.321 154.412 153.656 152.938L153.646 152.938C143.326 151.737 133.456 150.588 123.319 150.375C130.609 157.363 138.34 163.478 146.437 169.883L146.45 169.894C156.44 177.796 166.989 186.14 177.958 197.109L168.109 206.958C157.263 196.113 148.928 185.581 141.014 175.583L140.995 175.558L140.98 175.537C134.541 167.405 128.381 159.627 121.375 152.319C121.588 162.459 122.737 172.332 123.938 182.655C125.413 195.321 126.964 208.662 126.964 224H113.036C113.036 208.488 114.595 195.13 116.071 182.478L116.074 182.457C117.27 172.204 118.412 162.414 118.625 152.319C111.619 159.627 105.459 167.405 99.0203 175.537L99.0045 175.558L98.9858 175.583C91.0725 185.581 82.7366 196.113 71.8914 206.958L62.0424 197.109C73.011 186.14 83.5598 177.796 93.5501 169.894L93.5629 169.883C101.66 163.478 109.391 157.363 116.681 150.375C106.541 150.589 96.6671 151.737 86.3441 152.938C73.6785 154.412 60.3369 155.964 45 155.964V142.036C60.5116 142.036 73.871 143.595 86.523 145.072C96.7834 146.269 106.579 147.412 116.681 147.625C109.36 140.606 101.566 134.437 93.4185 127.987C83.4199 120.073 72.8875 111.737 62.0424 100.891L71.8914 91.0424C82.8589 102.01 91.2034 112.559 99.105 122.549C105.514 130.651 111.632 138.386 118.625 145.68C118.412 135.585 117.27 125.796 116.074 115.543L116.071 115.522Z" fill="black"/>
</g>
<path d="M322.072 119.064C321.682 119.553 319.289 119.602 314.895 119.211C310.5 118.82 303.566 118.186 294.094 117.307C294.094 120.529 294.094 124.484 294.094 129.172C294.191 133.859 294.191 138.889 294.094 144.26C301.418 144.943 307.131 145.578 311.232 146.164C315.334 146.75 317.482 147.141 317.678 147.336C318.068 147.727 318.215 148.557 318.117 149.826C318.02 150.998 317.775 152.316 317.385 153.781C316.994 155.246 316.506 156.662 315.92 158.029C315.334 159.299 314.748 160.129 314.162 160.52C313.674 160.715 311.721 161.008 308.303 161.398C304.982 161.691 300.246 161.984 294.094 162.277C294.094 166.477 294.045 170.627 293.947 174.729C293.947 178.83 293.898 182.59 293.801 186.008C303.273 186.105 310.158 186.301 314.455 186.594C318.85 186.789 321.242 187.082 321.633 187.473C322.023 187.961 322.023 188.889 321.633 190.256C321.34 191.623 320.803 193.088 320.021 194.65C319.338 196.115 318.557 197.58 317.678 199.045C316.896 200.51 316.262 201.535 315.773 202.121C315.578 202.316 314.406 202.414 312.258 202.414C310.109 202.316 307.717 202.17 305.08 201.975C302.443 201.779 299.904 201.584 297.463 201.389C295.021 201.096 293.41 200.852 292.629 200.656C291.164 200.168 289.602 199.387 287.941 198.312C286.281 197.141 284.963 195.676 283.986 193.918C283.791 193.43 283.449 191.818 282.961 189.084C282.57 186.252 282.131 182.688 281.643 178.391C281.154 174.094 280.666 169.26 280.178 163.889C279.689 158.518 279.201 153.049 278.713 147.482C278.225 141.916 277.785 136.447 277.395 131.076C277.004 125.705 276.662 120.871 276.369 116.574C276.174 112.18 276.076 108.566 276.076 105.734C276.076 102.805 276.223 101.047 276.516 100.461C276.809 99.6797 278.176 99.0938 280.617 98.7031C283.059 98.3125 285.988 98.0684 289.406 97.9707C292.824 97.7754 296.486 97.7266 300.393 97.8242C304.396 97.9219 308.107 98.1172 311.525 98.4102C314.943 98.6055 317.824 98.8984 320.168 99.2891C322.512 99.582 323.83 99.875 324.123 100.168C324.514 100.656 324.709 101.779 324.709 103.537C324.807 105.295 324.709 107.248 324.416 109.396C324.221 111.447 323.879 113.449 323.391 115.402C323 117.258 322.561 118.479 322.072 119.064ZM369.973 106.027C370.266 108.371 370.363 113.059 370.266 120.09C370.266 123.117 370.168 126.779 369.973 131.076C369.875 135.373 369.68 140.549 369.387 146.604C369.094 152.561 368.703 159.494 368.215 167.404C367.824 175.217 367.287 184.104 366.604 194.064C366.408 195.041 365.969 196.115 365.285 197.287C364.699 198.459 364.016 199.533 363.234 200.51C362.453 201.486 361.623 202.316 360.744 203C359.865 203.586 359.084 203.781 358.4 203.586C358.205 203.488 357.961 202.707 357.668 201.242C357.473 199.777 357.277 197.727 357.082 195.09C352.688 197.043 348.537 198.361 344.631 199.045C340.725 199.729 337.551 199.289 335.109 197.727C334.133 197.141 333.156 196.115 332.18 194.65C331.301 193.088 330.471 191.281 329.689 189.23C328.908 187.18 328.273 185.031 327.785 182.785C327.297 180.441 327.053 178.244 327.053 176.193C327.053 174.729 327.15 172.775 327.346 170.334C327.541 167.893 327.785 165.256 328.078 162.424C328.371 159.494 328.713 156.564 329.104 153.635C329.494 150.607 329.885 147.824 330.275 145.285C330.666 142.746 331.008 140.598 331.301 138.84C331.594 137.082 331.838 136.008 332.033 135.617C332.229 134.445 332.57 133.469 333.059 132.688C333.645 131.906 334.133 131.32 334.523 130.93C335.5 130.148 336.916 129.562 338.771 129.172C340.725 128.781 342.727 128.537 344.777 128.439C346.926 128.342 348.928 128.391 350.783 128.586C352.639 128.684 354.006 128.879 354.885 129.172H355.178C354.982 117.062 354.982 107.736 355.178 101.193C355.373 94.6504 355.764 91.1348 356.35 90.6465C356.74 90.3535 357.619 90.5977 358.986 91.3789C360.354 92.1602 361.77 93.2832 363.234 94.748C364.797 96.2129 366.213 97.9707 367.482 100.021C368.85 101.975 369.68 103.977 369.973 106.027ZM347.707 188.059C349.074 187.766 350.295 187.424 351.369 187.033C352.541 186.545 353.518 186.105 354.299 185.715C355.178 185.324 355.91 184.836 356.496 184.25C356.398 181.711 356.301 178.879 356.203 175.754C356.105 172.531 356.008 169.211 355.91 165.793C355.812 162.375 355.715 158.908 355.617 155.393C355.52 151.779 355.422 148.312 355.324 144.992C355.324 143.918 355.129 142.99 354.738 142.209C354.445 141.428 354.055 140.793 353.566 140.305C353.273 140.109 352.688 139.865 351.809 139.572C350.93 139.182 349.904 138.889 348.732 138.693C347.658 138.4 346.584 138.254 345.51 138.254C344.533 138.254 343.85 138.449 343.459 138.84C343.264 138.938 343.068 139.914 342.873 141.77C342.775 143.527 342.629 145.773 342.434 148.508C342.336 151.145 342.189 154.025 341.994 157.15C341.896 160.275 341.799 163.205 341.701 165.939C341.604 168.674 341.506 171.018 341.408 172.971C341.311 174.924 341.262 175.998 341.262 176.193C341.262 177.854 341.457 179.416 341.848 180.881C342.336 182.346 342.922 183.664 343.605 184.836C344.289 185.91 345.021 186.789 345.803 187.473C346.584 188.059 347.219 188.254 347.707 188.059ZM393.264 140.012C393.459 140.5 393.557 142.062 393.557 144.699C393.654 147.238 393.654 150.363 393.557 154.074C393.557 157.688 393.459 161.594 393.264 165.793C393.068 169.895 392.824 173.801 392.531 177.512C392.336 181.125 392.092 184.25 391.799 186.887C391.506 189.426 391.213 190.939 390.92 191.428C390.041 192.795 388.723 193.674 386.965 194.064C385.207 194.357 383.938 194.406 383.156 194.211C382.766 194.211 382.326 193.088 381.838 190.842C381.447 188.596 381.057 185.764 380.666 182.346C380.275 178.928 379.934 175.217 379.641 171.213C379.348 167.209 379.104 163.4 378.908 159.787C378.713 156.076 378.615 152.854 378.615 150.119C378.615 147.385 378.713 145.627 378.908 144.846C379.201 143.576 380.031 142.453 381.398 141.477C382.863 140.5 384.377 139.768 385.939 139.279C387.6 138.791 389.113 138.596 390.48 138.693C391.945 138.693 392.873 139.133 393.264 140.012ZM393.996 116.281C394.387 117.062 394.533 118.137 394.436 119.504C394.436 120.871 394.289 122.287 393.996 123.752C393.703 125.217 393.312 126.633 392.824 128C392.336 129.367 391.848 130.441 391.359 131.223C390.383 132.59 388.918 133.469 386.965 133.859C385.109 134.152 383.742 134.201 382.863 134.006C382.18 133.908 381.496 133.469 380.812 132.688C380.129 131.809 379.543 130.783 379.055 129.611C378.566 128.342 378.225 126.975 378.029 125.51C377.834 124.045 377.883 122.678 378.176 121.408C378.469 120.139 379.396 119.016 380.959 118.039C382.521 116.965 384.182 116.184 385.939 115.695C387.697 115.109 389.357 114.865 390.92 114.963C392.482 114.963 393.508 115.402 393.996 116.281ZM439.992 125.51C440.969 126.096 441.945 127.17 442.922 128.732C443.996 130.197 444.924 131.955 445.705 134.006C446.584 136.057 447.268 138.254 447.756 140.598C448.244 142.844 448.488 144.992 448.488 147.043C448.488 148.508 448.293 150.559 447.902 153.195C447.609 155.734 447.17 158.566 446.584 161.691C445.998 164.719 445.363 167.893 444.68 171.213C443.996 174.436 443.312 177.414 442.629 180.148C442.043 182.883 441.506 185.227 441.018 187.18C440.529 189.035 440.188 190.158 439.992 190.549C439.504 191.721 439.064 192.746 438.674 193.625C438.381 194.406 437.99 194.992 437.502 195.383C436.428 196.164 435.061 196.75 433.4 197.141C431.74 197.434 430.031 197.629 428.273 197.727C426.516 197.824 424.807 197.824 423.146 197.727C421.584 197.531 420.363 197.287 419.484 196.994C419.094 196.896 418.654 196.799 418.166 196.701C417.775 196.506 417.336 196.311 416.848 196.115C415.871 197.775 414.748 199.289 413.479 200.656C412.209 201.926 411.037 202.463 409.963 202.268C409.572 202.17 409.133 200.559 408.645 197.434C408.254 194.309 407.814 190.207 407.326 185.129C406.838 179.953 406.35 174.094 405.861 167.551C405.373 161.008 404.934 154.318 404.543 147.482C404.152 140.549 403.811 133.762 403.518 127.121C403.225 120.48 402.98 114.572 402.785 109.396C402.688 104.123 402.688 99.8262 402.785 96.5059C402.883 93.0879 403.127 91.2324 403.518 90.9395C403.908 90.6465 404.787 90.8906 406.154 91.6719C407.619 92.3555 409.182 93.4297 410.842 94.8945C412.502 96.2617 414.016 97.9219 415.383 99.875C416.848 101.828 417.824 103.83 418.312 105.881C418.605 107.443 418.801 110.129 418.898 113.938C419.094 117.746 419.191 122.238 419.191 127.414C423.488 125.754 427.443 124.68 431.057 124.191C434.768 123.703 437.746 124.143 439.992 125.51ZM433.693 147.043C433.693 145.48 433.449 143.967 432.961 142.502C432.473 140.939 431.887 139.621 431.203 138.547C430.52 137.375 429.787 136.496 429.006 135.91C428.225 135.324 427.541 135.129 426.955 135.324C425.881 135.52 424.855 135.812 423.879 136.203C422.902 136.496 422.072 136.789 421.389 137.082C420.51 137.473 419.777 137.814 419.191 138.107C419.094 143.869 418.947 149.729 418.752 155.686C418.654 161.643 418.605 167.209 418.605 172.385C418.605 174.924 418.654 177.17 418.752 179.123C418.85 180.979 418.898 182.15 418.898 182.639C419.191 184.982 419.826 186.643 420.803 187.619C421.096 187.814 421.535 188.107 422.121 188.498C422.805 188.791 423.488 189.084 424.172 189.377C424.953 189.572 425.686 189.719 426.369 189.816C427.053 189.816 427.639 189.621 428.127 189.23C428.225 189.133 428.42 188.059 428.713 186.008C429.104 183.859 429.494 181.271 429.885 178.244C430.275 175.217 430.666 171.945 431.057 168.43C431.545 164.816 431.984 161.496 432.375 158.469C432.766 155.344 433.059 152.707 433.254 150.559C433.547 148.41 433.693 147.238 433.693 147.043ZM467.824 202.121C467.141 202.316 466.359 202.072 465.48 201.389C464.602 200.705 463.723 199.875 462.844 198.898C462.062 197.824 461.379 196.701 460.793 195.529C460.207 194.357 459.816 193.381 459.621 192.6C458.938 184.006 458.352 176.34 457.863 169.602C457.473 162.766 457.131 156.711 456.838 151.438C456.545 146.164 456.301 141.623 456.105 137.814C456.008 133.908 455.959 130.588 455.959 127.854C455.861 121.506 455.959 117.111 456.252 114.67C456.545 112.912 457.326 111.154 458.596 109.396C459.963 107.639 461.379 106.125 462.844 104.855C464.406 103.586 465.822 102.609 467.092 101.926C468.459 101.242 469.338 101.047 469.729 101.34C470.119 101.633 470.412 103.293 470.607 106.32C470.803 109.25 470.949 113.107 471.047 117.893C471.145 122.678 471.145 128.049 471.047 134.006C471.047 139.963 470.949 146.066 470.754 152.316C470.656 158.566 470.51 164.67 470.314 170.627C470.119 176.584 469.875 181.906 469.582 186.594C469.289 191.184 468.996 194.895 468.703 197.727C468.41 200.559 468.117 202.023 467.824 202.121ZM493.02 160.666C494.582 160.08 496.34 159.445 498.293 158.762C500.344 157.98 502.297 157.297 504.152 156.711C506.008 156.027 507.668 155.441 509.133 154.953C510.598 154.465 511.672 154.074 512.355 153.781C512.258 152.707 512.111 151.486 511.916 150.119C511.818 148.654 511.672 147.287 511.477 146.018C511.281 144.65 511.037 143.479 510.744 142.502C510.451 141.525 510.158 140.939 509.865 140.744C509.084 140.451 507.766 140.207 505.91 140.012C504.152 139.719 502.297 139.768 500.344 140.158C498.488 140.549 496.779 141.281 495.217 142.355C493.654 143.43 492.775 145.139 492.58 147.482C492.385 149.045 492.336 150.998 492.434 153.342C492.531 155.686 492.727 158.127 493.02 160.666ZM524.807 163.01C524.709 163.205 523.537 163.596 521.291 164.182C519.045 164.768 516.359 165.402 513.234 166.086C510.109 166.672 506.789 167.307 503.273 167.99C499.758 168.576 496.73 169.064 494.191 169.455C494.68 173.361 495.266 176.877 495.949 180.002C496.633 183.029 497.219 184.934 497.707 185.715C498.195 186.398 498.83 187.033 499.611 187.619C500.295 188.107 501.125 188.596 502.102 189.084C503.176 189.475 504.445 189.768 505.91 189.963C506.984 190.256 508.01 189.865 508.986 188.791C509.768 187.814 510.451 186.105 511.037 183.664C511.721 181.223 512.062 177.365 512.062 172.092C515.09 171.604 517.434 171.311 519.094 171.213C520.852 171.115 522.121 171.115 522.902 171.213C523.879 171.311 524.465 171.457 524.66 171.652C524.758 171.945 524.758 172.678 524.66 173.85C524.562 175.021 524.318 176.486 523.928 178.244C523.635 179.904 523.244 181.76 522.756 183.811C522.365 185.764 521.877 187.668 521.291 189.523C520.705 191.281 520.07 192.893 519.387 194.357C518.703 195.725 517.971 196.701 517.189 197.287C514.846 199.045 511.916 199.924 508.4 199.924C504.885 199.826 501.418 199.338 498 198.459C494.582 197.482 491.506 196.359 488.771 195.09C486.037 193.723 484.328 192.6 483.645 191.721C483.156 191.135 482.717 189.67 482.326 187.326C481.936 184.885 481.594 181.955 481.301 178.537C481.105 175.119 480.959 171.359 480.861 167.258C480.764 163.156 480.812 159.152 481.008 155.246C481.301 151.34 481.691 147.727 482.18 144.406C482.766 141.086 483.547 138.4 484.523 136.35C485.988 133.42 488.381 131.027 491.701 129.172C495.021 127.316 498.537 126.047 502.248 125.363C505.959 124.68 509.475 124.582 512.795 125.07C516.213 125.559 518.752 126.633 520.412 128.293C521.389 129.27 522.268 131.223 523.049 134.152C523.83 136.984 524.318 140.451 524.514 144.553C524.514 144.943 524.562 146.066 524.66 147.922C524.758 149.777 524.807 151.779 524.807 153.928C524.904 155.979 524.953 157.932 524.953 159.787C524.953 161.643 524.904 162.717 524.807 163.01ZM576.809 130.93C576.906 132.004 576.711 133.664 576.223 135.91C575.832 138.156 575.197 140.402 574.318 142.648C573.537 144.895 572.463 146.848 571.096 148.508C569.826 150.168 568.361 150.998 566.701 150.998C565.529 150.998 564.553 150.07 563.771 148.215C563.088 146.359 562.551 144.211 562.16 141.77C561.867 139.23 561.623 136.74 561.428 134.299C561.232 131.857 561.037 130.148 560.842 129.172C560.549 128.684 559.963 128.244 559.084 127.854C558.303 127.365 557.521 127.121 556.74 127.121C555.959 127.121 555.08 127.756 554.104 129.025C553.127 130.295 552.15 131.76 551.174 133.42C550.295 135.08 549.514 136.74 548.83 138.4C548.244 140.061 548 141.281 548.098 142.062C548.098 142.648 548.732 143.674 550.002 145.139C551.271 146.604 552.834 148.361 554.689 150.412C556.643 152.365 558.693 154.514 560.842 156.857C563.088 159.104 565.139 161.398 566.994 163.742C568.85 165.988 570.412 168.137 571.682 170.188C573.049 172.238 573.781 173.996 573.879 175.461C573.977 177.219 573.488 179.465 572.414 182.199C571.438 184.934 570.168 187.57 568.605 190.109C567.043 192.648 565.383 194.846 563.625 196.701C561.867 198.557 560.305 199.533 558.938 199.631C557.57 199.729 555.568 198.996 552.932 197.434C550.393 195.773 547.805 193.869 545.168 191.721C542.629 189.475 540.334 187.277 538.283 185.129C536.33 182.98 535.207 181.418 534.914 180.441C534.621 179.562 534.426 178.391 534.328 176.926C534.328 175.461 534.377 173.996 534.475 172.531C534.67 171.066 534.963 169.846 535.354 168.869C535.744 167.795 536.232 167.258 536.818 167.258C537.404 167.258 538.576 168.283 540.334 170.334C542.092 172.287 543.996 174.533 546.047 177.072C548.098 179.514 550.1 181.76 552.053 183.811C554.006 185.764 555.422 186.74 556.301 186.74C556.789 186.74 557.326 186.398 557.912 185.715C558.498 184.934 559.035 184.055 559.523 183.078C560.012 182.102 560.402 181.125 560.695 180.148C561.086 179.074 561.281 178.244 561.281 177.658C561.184 176.779 560.402 175.51 558.938 173.85C557.473 172.189 555.617 170.334 553.371 168.283C551.125 166.232 548.684 164.084 546.047 161.838C543.41 159.494 540.969 157.297 538.723 155.246C536.477 153.195 534.621 151.34 533.156 149.68C531.691 148.02 530.91 146.75 530.812 145.871C530.715 144.992 531.008 143.625 531.691 141.77C532.375 139.816 533.254 137.717 534.328 135.471C535.402 133.127 536.623 130.734 537.99 128.293C539.455 125.852 540.92 123.605 542.385 121.555C543.85 119.504 545.266 117.844 546.633 116.574C548.098 115.207 549.367 114.523 550.441 114.523C552.59 114.523 555.129 115.109 558.059 116.281C561.086 117.453 563.967 118.918 566.701 120.676C569.436 122.336 571.779 124.094 573.732 125.949C575.686 127.805 576.711 129.465 576.809 130.93Z" fill="black"/>
<defs>
<clipPath id="clip0_11_5328">
<rect width="150" height="150" fill="white" transform="translate(45 74)"/>
</clipPath>
</defs>
</svg>
